<?xml version="1.0" standalone="no"?>
<!DOCTYPE svg PUBLIC "-//W3C//DTD SVG 20010904//EN"
 "http://www.w3.org/TR/2001/REC-SVG-20010904/DTD/svg10.dtd">
<svg version="1.0" xmlns="http://www.w3.org/2000/svg"
 width="1234.000000pt" height="1280.000000pt" viewBox="0 0 1234.000000 1280.000000"
 preserveAspectRatio="xMidYMid meet">
<metadata>
Created by potrace 1.15, written by Peter Selinger 2001-2017
</metadata>
<g transform="translate(0.000000,1280.000000) scale(0.100000,-0.100000)"
fill="#000000" stroke="none">
<path d="M5862 12780 c-136 -36 -254 -119 -324 -230 -36 -56 -76 -184 -86
-269 l-7 -64 -205 -33 c-350 -56 -557 -107 -888 -218 -310 -105 -568 -213
-882 -371 -345 -173 -595 -330 -955 -598 -466 -349 -1012 -933 -1347 -1442
-111 -170 -307 -511 -401 -700 -259 -520 -480 -1222 -566 -1795 -55 -367 -56
-392 -55 -965 0 -378 4 -564 12 -620 7 -44 17 -120 23 -170 18 -168 84 -487
160 -770 351 -1304 1153 -2497 2214 -3288 830 -620 1803 -1034 2765 -1177 372
-55 440 -61 775 -67 440 -7 681 7 1104 67 685 98 1465 368 2071 719 543 313
890 579 1310 1000 283 284 470 516 717 890 75 113 159 242 185 286 101 165
332 645 439 911 83 206 235 692 246 787 6 46 5 47 -21 47 -31 0 -31 0 -87
-190 -272 -919 -656 -1658 -1215 -2335 -115 -140 -517 -546 -679 -686 -383
-331 -989 -710 -1465 -917 -487 -211 -1075 -377 -1595 -451 -282 -40 -398 -46
-845 -46 -445 0 -557 7 -860 51 -1006 147 -1972 549 -2795 1165 -432 323 -838
730 -1182 1185 -88 116 -319 468 -403 614 -220 383 -434 883 -564 1319 -92
308 -135 511 -191 901 -32 220 -38 293 -45 530 -4 151 -4 392 1 535 13 392 43
626 133 1038 25 113 50 234 55 269 21 130 183 611 293 870 29 68 96 211 149
318 295 599 634 1065 1134 1565 322 323 550 509 915 751 604 399 1239 675
1940 843 198 47 596 119 605 109 1 -2 14 -36 28 -76 53 -153 153 -270 289
-336 230 -114 476 -76 654 99 77 76 134 175 154 272 19 89 17 88 171 74 1162
-108 2205 -514 3149 -1226 186 -140 258 -202 457 -387 294 -275 529 -530 714
-778 451 -602 768 -1246 979 -1987 177 -621 263 -1352 228 -1948 -7 -126 -13
-270 -13 -320 0 -89 0 -90 25 -90 22 0 26 5 32 50 25 175 36 815 18 1055 -56
742 -238 1471 -526 2108 -167 367 -274 561 -474 862 -297 444 -525 711 -935
1090 -379 351 -674 571 -1093 816 -763 447 -1590 719 -2456 809 -82 8 -173 15
-202 15 -50 0 -54 2 -60 28 -24 108 -38 154 -64 207 -118 240 -394 364 -658
295z"/>
<path d="M8400 12290 c-14 -22 -28 -40 -31 -40 -4 0 -21 16 -38 35 -17 19 -33
35 -35 35 -3 0 1 -19 9 -41 8 -23 15 -45 15 -50 0 -5 -22 -9 -50 -9 -60 0 -65
-12 -10 -29 21 -6 42 -16 45 -21 4 -6 -8 -28 -25 -50 -17 -22 -30 -40 -27 -40
2 0 25 11 50 26 l46 25 10 -38 c6 -21 11 -44 11 -51 0 -7 5 -10 10 -7 6 3 10
21 10 38 0 55 10 60 64 37 l48 -20 -36 42 -36 42 47 29 48 29 -54 -6 -53 -5 7
54 c3 30 5 55 3 55 -2 0 -14 -18 -28 -40z"/>
<path d="M9100 12264 c0 -5 -18 -33 -39 -62 l-38 -53 -47 57 c-25 31 -46 52
-46 48 0 -5 9 -37 19 -71 l19 -63 -69 0 c-38 0 -69 -4 -69 -8 0 -4 24 -16 53
-26 28 -11 56 -22 61 -27 5 -5 -9 -32 -33 -64 -23 -30 -39 -55 -36 -55 4 0 33
16 66 35 l58 34 11 -38 c5 -20 13 -51 16 -69 10 -47 21 -30 29 43 3 36 8 65
10 65 2 0 33 -13 70 -30 l67 -30 -31 39 c-17 21 -37 44 -46 51 -24 20 -18 28
45 60 33 17 60 31 60 33 0 1 -31 1 -70 -1 -79 -5 -77 -7 -59 78 6 28 8 54 5
57 -3 4 -6 2 -6 -3z"/>
<path d="M3645 12100 c4 -19 9 -46 12 -59 6 -23 5 -24 -51 -19 -31 3 -56 3
-56 2 0 -2 19 -13 43 -25 23 -12 44 -23 46 -25 2 -2 -11 -21 -29 -44 -36 -46
-34 -48 20 -20 22 11 41 20 43 20 3 0 8 -26 12 -57 l8 -58 15 50 c8 28 16 52
18 54 2 3 22 -6 45 -18 22 -13 42 -21 44 -19 3 2 -9 20 -25 39 -16 19 -29 37
-30 41 0 3 24 15 53 25 l52 18 -57 3 c-32 2 -58 5 -58 7 0 2 4 14 9 27 4 13
11 36 15 53 7 28 6 28 -31 -14 l-39 -44 -33 49 -32 49 6 -35z"/>
<path d="M3024 11960 c4 -19 9 -52 13 -73 l6 -39 -72 4 c-39 1 -71 2 -71 1 0
-2 21 -14 48 -27 82 -43 80 -38 27 -101 l-49 -56 60 26 c32 15 64 29 71 32 7
3 14 -17 18 -61 4 -37 11 -68 15 -71 4 -2 13 22 20 56 7 33 17 62 22 65 5 3
36 -10 68 -30 33 -19 60 -34 60 -32 0 1 -18 27 -40 56 -22 29 -40 57 -40 61 0
4 27 18 60 31 57 21 59 23 33 29 -15 4 -47 7 -70 8 l-41 1 19 63 c10 34 19 66
19 71 0 4 -21 -17 -47 -48 -25 -31 -49 -53 -53 -49 -4 4 -24 33 -45 63 -36 54
-37 54 -31 20z"/>
<path d="M9696 11753 l-30 -46 -38 43 c-42 47 -45 44 -23 -20 8 -23 15 -44 15
-46 0 -2 -26 -4 -57 -6 -61 -4 -60 -4 15 -34 l34 -14 -31 -39 c-17 -21 -31
-42 -31 -46 0 -4 21 5 46 20 25 15 47 25 48 23 2 -1 10 -28 18 -58 l15 -55 8
58 c4 31 11 57 15 57 5 0 30 -9 57 -21 l48 -20 -26 28 c-55 61 -55 59 -2 87
l48 25 -58 1 c-51 0 -58 2 -53 18 8 28 18 92 15 92 -2 -1 -17 -22 -33 -47z"/>
<path d="M5670 11573 c-191 -15 -685 -103 -800 -142 -47 -16 -141 -46 -210
-66 -1174 -347 -2229 -1113 -2922 -2125 -292 -426 -566 -1028 -728 -1600 -80
-285 -145 -634 -175 -945 -41 -421 -25 -960 40 -1345 7 -47 19 -140 25 -208
16 -188 70 -414 182 -752 94 -286 272 -679 449 -990 332 -586 850 -1179 1379
-1579 474 -359 845 -566 1386 -774 481 -185 982 -299 1521 -347 158 -15 816
-8 968 9 1163 132 2181 567 3010 1285 155 134 454 439 576 586 456 549 809
1193 1038 1892 28 86 51 173 51 192 0 32 -3 36 -25 36 -30 0 -26 10 -100 -220
-352 -1080 -992 -1991 -1861 -2647 -801 -605 -1704 -944 -2804 -1055 -164 -16
-698 -16 -860 0 -1196 123 -2217 550 -3071 1286 -251 216 -569 553 -766 812
-89 117 -273 389 -339 501 -90 153 -319 625 -383 788 -250 641 -364 1269 -363
2015 0 719 104 1278 360 1946 363 946 939 1712 1737 2311 534 402 1173 718
1784 883 307 83 559 129 926 170 147 17 271 33 276 36 5 3 9 16 9 30 l0 24
-132 -2 c-73 -1 -153 -3 -178 -5z"/>
<path d="M7165 11564 c-15 -15 -16 -45 -13 -258 3 -220 5 -244 23 -276 42 -72
160 -96 243 -50 69 39 74 59 79 329 2 131 0 242 -5 249 -14 20 -74 26 -97 9
-18 -14 -20 -31 -25 -239 -3 -122 -9 -229 -13 -235 -5 -7 -19 -13 -31 -13 -47
0 -51 18 -56 257 -5 242 -5 243 -62 243 -15 0 -34 -7 -43 -16z"/>
<path d="M8239 11574 c-23 -7 -27 -52 -21 -204 2 -69 2 -123 -1 -120 -3 3 -19
40 -37 84 -17 43 -47 114 -67 158 l-36 79 -54 -3 -54 -3 1 -284 c0 -156 3
-288 6 -292 3 -5 27 -9 55 -9 l49 0 0 157 c0 86 3 153 8 149 4 -4 34 -73 67
-154 33 -81 63 -146 68 -144 4 1 32 2 62 2 l55 0 0 290 0 290 -22 0 c-13 0
-32 2 -43 4 -11 2 -27 2 -36 0z"/>
<path d="M6139 11547 c-43 -28 -79 -98 -79 -153 0 -47 28 -90 110 -169 28 -27
58 -63 66 -78 14 -25 14 -31 -1 -53 -18 -28 -58 -32 -101 -9 -42 22 -52 19
-71 -21 -20 -42 -13 -59 38 -89 41 -24 121 -25 165 -2 45 23 92 81 100 122 12
66 -2 97 -91 199 -64 73 -85 103 -85 125 0 34 19 44 66 35 42 -8 61 7 70 52
10 52 -7 64 -86 64 -53 0 -74 -5 -101 -23z"/>
<path d="M6800 11531 c0 -59 7 -69 56 -77 l44 -6 2 -237 3 -236 55 0 55 0 6
190 c4 105 7 214 8 243 1 47 3 52 24 52 41 0 59 21 55 65 l-3 40 -152 3 -153
3 0 -40z"/>
<path d="M7587 11563 c-9 -8 -9 -279 0 -456 l6 -137 41 0 c23 0 46 4 53 8 8 5
13 42 15 102 l3 95 53 -103 53 -103 52 3 c49 3 52 4 49 28 -2 14 -26 70 -53
124 l-50 99 30 31 c42 45 52 71 52 132 0 60 -25 117 -68 148 -33 24 -218 47
-236 29z m182 -147 c17 -36 1 -100 -30 -116 -32 -17 -39 -3 -39 76 l0 75 27
-3 c19 -2 32 -12 42 -32z"/>
<path d="M6540 11554 c0 -4 -29 -129 -65 -279 -36 -151 -65 -281 -65 -289 0
-12 10 -16 43 -16 51 0 59 5 81 48 15 30 20 32 66 32 48 0 51 -2 67 -37 17
-35 21 -38 67 -41 l49 -3 -7 53 c-5 44 -78 355 -117 501 l-10 37 -54 0 c-30 0
-55 -3 -55 -6z m74 -340 c1 -48 -2 -59 -17 -62 -25 -5 -30 19 -17 83 15 72 32
60 34 -21z"/>
<path d="M2506 11445 c3 -22 7 -44 8 -50 0 -6 -20 -9 -49 -7 l-50 2 40 -21
c22 -12 42 -23 44 -25 3 -3 -10 -19 -27 -37 -43 -44 -40 -52 9 -26 48 24 59
17 59 -39 0 -44 17 -32 25 18 4 22 9 40 11 40 2 0 22 -11 44 -25 46 -29 50
-25 15 21 -14 18 -25 35 -25 38 0 3 18 11 40 17 53 16 51 29 -5 29 -25 0 -45
2 -45 4 0 2 7 22 15 45 17 49 12 51 -22 11 -13 -16 -29 -30 -34 -30 -4 0 -20
17 -34 38 l-26 37 7 -40z"/>
<path d="M10340 11310 c-18 -27 -35 -50 -39 -50 -3 0 -25 21 -48 47 l-43 48
14 -40 c7 -22 16 -52 20 -67 l6 -28 -67 0 -68 -1 63 -26 c42 -17 60 -29 54
-37 -5 -6 -23 -30 -41 -53 -18 -24 -30 -43 -27 -43 3 0 28 14 56 31 28 17 53
29 55 27 3 -2 13 -31 23 -64 l19 -59 8 60 c4 33 9 63 12 67 2 4 27 -4 55 -18
27 -14 52 -24 54 -22 1 2 -15 24 -36 49 l-39 46 50 24 c71 33 70 41 0 33 -60
-6 -61 -6 -61 17 0 13 5 42 10 64 5 22 7 41 6 43 -2 1 -18 -20 -36 -48z"/>
<path d="M1865 11066 c4 -27 9 -55 12 -64 5 -12 -4 -14 -60 -10 -37 2 -67 3
-67 1 0 -1 24 -15 53 -29 28 -15 54 -28 56 -30 3 -3 -15 -25 -39 -49 -24 -25
-41 -45 -36 -45 4 0 30 10 57 21 27 12 52 19 55 17 2 -3 7 -28 11 -57 3 -28 9
-51 13 -51 4 0 12 25 19 55 7 30 15 55 18 55 3 0 28 -13 55 -30 26 -16 51 -30
54 -30 3 0 -11 21 -31 46 -19 26 -35 50 -35 54 0 4 26 18 58 33 l57 25 -67 1
-67 1 13 38 c7 20 16 50 20 66 6 26 3 24 -35 -20 -23 -27 -43 -51 -44 -52 -2
-2 -20 20 -40 50 l-37 53 7 -49z"/>
<path d="M8460 11067 c0 -33 1 -34 163 -115 668 -334 1263 -809 1756 -1402
189 -227 306 -396 503 -730 164 -276 261 -479 366 -767 41 -109 158 -486 193
-618 38 -142 99 -484 134 -748 8 -64 -10 -93 -64 -102 -67 -11 -173 -69 -238
-129 -115 -107 -170 -225 -180 -385 -10 -185 29 -298 149 -426 138 -148 343
-206 543 -155 192 49 325 174 392 367 69 201 8 442 -153 597 -62 60 -179 119
-280 141 -43 9 -82 20 -86 24 -7 6 -12 39 -38 251 -53 435 -185 933 -366 1380
-68 168 -222 485 -319 655 -207 365 -520 770 -855 1105 -282 282 -674 587
-1021 795 -168 100 -550 295 -579 295 -16 0 -20 -7 -20 -33z"/>
<path d="M5800 10850 c-394 -31 -730 -103 -1140 -245 -905 -315 -1705 -913
-2247 -1680 -208 -294 -419 -675 -533 -965 -75 -191 -144 -405 -137 -424 4 -9
15 -16 26 -16 24 0 48 43 81 145 43 134 133 351 214 520 149 306 303 558 538
875 202 271 535 595 857 834 665 493 1426 784 2303 883 191 21 715 24 888 5
788 -89 1446 -315 2080 -717 316 -201 742 -560 968 -817 269 -307 535 -725
736 -1156 89 -191 137 -311 210 -527 57 -169 63 -180 86 -180 41 0 36 35 -36
240 -36 105 -76 226 -88 270 -29 103 -70 196 -160 370 -269 513 -514 853 -881
1220 -537 538 -1236 954 -1995 1187 -241 74 -509 128 -810 164 -158 19 -776
28 -960 14z"/>
<path d="M10723 10690 c21 -75 23 -70 -24 -71 l-44 -1 35 -15 c19 -8 37 -17
39 -19 2 -2 -8 -19 -23 -39 -31 -41 -30 -42 19 -14 20 12 37 20 39 18 2 -2 8
-22 13 -44 l10 -40 8 43 c8 45 16 49 55 27 42 -24 46 -17 11 19 l-33 34 38 21
39 20 -43 1 -44 0 7 43 c6 40 5 41 -10 22 -9 -11 -21 -27 -26 -35 -7 -12 -14
-9 -41 20 -28 31 -31 32 -25 10z"/>
<path d="M1376 10563 l7 -43 -44 0 -44 -1 39 -20 38 -21 -26 -27 c-35 -36 -33
-43 9 -25 19 7 36 14 39 14 2 0 8 -19 12 -42 l7 -43 9 30 c5 17 11 36 14 43 3
11 12 9 38 -7 47 -29 51 -26 20 14 -15 20 -25 37 -23 38 2 1 20 10 39 19 l35
17 -43 0 c-36 1 -43 4 -38 19 2 9 8 28 11 42 7 25 7 25 -24 -5 -27 -25 -34
-27 -41 -15 -5 8 -16 24 -24 35 -15 19 -16 17 -10 -22z"/>
<path d="M5873 10109 c-236 -18 -634 -100 -886 -183 -353 -116 -710 -292
-1009 -498 -346 -238 -690 -576 -943 -928 -165 -230 -334 -529 -438 -776 -50
-119 -60 -178 -29 -172 18 3 23 11 140 258 359 756 880 1328 1564 1720 463
266 939 426 1473 495 166 22 582 30 783 16 550 -39 1146 -223 1632 -506 522
-302 952 -709 1284 -1214 169 -256 240 -391 380 -716 77 -177 95 -211 114
-213 13 -2 24 3 28 12 11 29 -169 448 -282 656 -85 156 -107 191 -207 333
-213 304 -363 480 -585 689 -625 591 -1515 976 -2373 1028 -186 11 -495 11
-646 -1z"/>
<path d="M9296 10111 c-4 -5 -2 -12 3 -15 5 -4 12 -2 15 3 4 5 2 12 -3 15 -5
4 -12 2 -15 -3z"/>
<path d="M660 9853 c1 -5 7 -36 14 -71 l14 -64 -77 7 -76 6 69 -37 69 -36 -54
-54 c-29 -30 -50 -54 -46 -54 3 0 32 11 63 25 31 14 60 25 65 25 4 0 11 -27
15 -60 7 -67 19 -84 28 -42 4 15 12 44 17 65 l10 38 66 -37 66 -37 -34 47
c-18 26 -37 50 -41 52 -22 14 -2 32 60 54 l67 25 -65 3 c-95 4 -93 1 -64 84
l24 73 -53 -59 -53 -59 -38 57 c-39 55 -46 63 -46 49z"/>
<path d="M11666 9789 c-21 -32 -39 -59 -41 -59 -1 0 -23 25 -49 56 -25 31 -46
52 -46 48 0 -5 9 -37 19 -71 l19 -63 -69 0 c-38 0 -69 -4 -69 -8 0 -4 21 -16
48 -25 81 -30 81 -29 33 -91 -23 -31 -39 -56 -35 -56 4 0 31 14 60 31 30 17
58 28 62 25 5 -3 15 -32 22 -65 7 -34 16 -58 20 -56 4 3 11 34 15 70 3 36 8
65 10 65 2 0 33 -13 70 -30 l67 -30 -31 39 c-17 21 -37 44 -46 51 -24 20 -18
28 45 60 33 17 60 31 60 33 0 1 -31 1 -70 -1 -79 -5 -77 -7 -59 78 6 28 9 53
7 55 -2 2 -21 -23 -42 -56z"/>
<path d="M5805 9830 c-115 -23 -225 -88 -317 -187 -84 -91 -121 -191 -133
-359 l-7 -92 -106 -37 c-468 -163 -862 -403 -1172 -714 -199 -200 -402 -450
-522 -643 -157 -252 -324 -676 -393 -994 -49 -224 -59 -346 -60 -685 l0 -317
-54 60 c-30 33 -78 73 -108 90 l-53 30 27 50 c19 35 45 62 85 89 65 45 81 66
67 92 -8 14 -25 17 -96 17 -66 0 -84 3 -80 13 51 134 65 226 48 315 -17 86
-40 80 -101 -24 -49 -83 -81 -115 -146 -147 -53 -25 -70 -19 -85 35 -17 64 -7
123 30 168 35 44 39 65 13 79 -24 13 -94 -27 -181 -103 -46 -40 -68 -53 -75
-46 -7 7 -10 66 -8 166 3 147 2 154 -16 154 -23 0 -28 -10 -37 -76 -4 -27 -10
-54 -14 -61 -4 -8 -30 9 -74 48 -99 86 -103 83 -70 -49 31 -126 29 -219 -7
-257 -32 -34 -94 -53 -115 -35 -29 24 -56 90 -64 156 -4 35 -12 69 -18 75 -14
14 -67 -32 -101 -90 -25 -43 -27 -53 -25 -148 1 -57 1 -103 0 -103 -1 0 -26 9
-56 20 -74 29 -143 31 -171 5 l-21 -19 6 79 c6 75 26 262 41 383 l7 52 -36 0
c-33 0 -37 -3 -42 -32 -21 -126 -28 -244 -34 -538 l-6 -335 -28 -43 c-31 -48
-44 -96 -29 -106 6 -3 23 -1 38 4 15 6 29 9 31 6 2 -2 11 -55 19 -117 81 -634
205 -1058 464 -1584 245 -499 525 -889 920 -1286 255 -255 476 -438 745 -615
585 -384 1271 -639 1964 -729 69 -9 128 -18 133 -21 4 -3 8 -22 8 -42 0 -103
58 -226 152 -328 117 -125 215 -171 378 -181 181 -11 326 49 454 187 83 90
146 239 146 347 0 49 -15 43 170 73 197 33 263 48 445 100 201 58 312 95 331
111 56 46 -48 35 -288 -31 -202 -55 -447 -112 -563 -131 -88 -14 -94 -11 -120
59 -99 264 -285 402 -543 402 -166 0 -271 -42 -388 -153 -78 -74 -138 -172
-168 -279 -16 -57 -17 -58 -54 -58 -53 0 -374 56 -522 90 -678 159 -1320 472
-1857 906 -326 263 -585 532 -829 859 -300 403 -544 871 -706 1355 -73 218
-193 718 -176 735 3 3 26 1 51 -5 34 -7 66 -6 129 5 46 8 86 15 89 15 4 0 0
-19 -9 -42 -9 -24 -16 -76 -16 -118 -1 -65 3 -84 31 -140 18 -36 45 -81 62
-100 40 -48 53 -33 59 72 5 85 18 125 55 166 27 30 58 28 89 -5 51 -56 58 -74
58 -149 0 -82 10 -97 60 -88 22 5 41 19 59 45 14 21 29 38 33 39 4 0 17 -33
28 -72 121 -422 277 -757 520 -1118 412 -611 900 -1042 1560 -1378 249 -126
466 -207 755 -282 424 -110 652 -136 1120 -127 245 5 364 14 428 33 10 3 17
15 17 31 l0 26 -77 -6 c-397 -32 -612 -33 -897 -1 -732 80 -1444 375 -2026
838 -155 124 -453 420 -584 582 -337 415 -530 764 -712 1290 -66 191 -98 321
-87 351 27 73 97 -9 110 -127 7 -73 21 -95 52 -85 32 10 68 71 87 149 15 57
15 79 6 139 -6 39 -9 73 -8 75 2 1 37 -7 78 -19 55 -16 86 -20 120 -15 49 7
103 38 122 69 14 23 -10 43 -65 52 -55 9 -99 53 -99 98 0 82 42 118 110 98 48
-14 156 -96 164 -124 4 -12 22 -87 40 -167 142 -605 414 -1094 858 -1541 165
-166 292 -271 478 -394 374 -248 613 -357 1005 -460 468 -124 935 -123 1475 1
185 43 307 85 500 170 1011 450 1689 1308 1859 2352 35 210 44 370 38 622 -6
234 -19 377 -38 412 -5 10 -21 18 -34 18 -23 0 -25 -3 -25 -52 0 -29 7 -118
15 -198 65 -658 -111 -1393 -463 -1930 -162 -248 -472 -590 -597 -660 -22 -12
-74 -53 -115 -89 -41 -37 -101 -82 -133 -100 -31 -18 -79 -50 -105 -70 -26
-21 -84 -58 -127 -81 -44 -24 -91 -51 -105 -61 -63 -43 -393 -179 -533 -220
-329 -96 -617 -133 -962 -126 -222 5 -377 24 -505 61 -47 13 -132 36 -190 51
-58 15 -125 35 -150 45 -25 10 -83 29 -130 43 -102 29 -213 78 -307 135 -38
23 -77 42 -86 42 -8 0 -18 4 -22 10 -3 5 -47 34 -98 64 -51 30 -121 77 -155
105 -35 28 -77 58 -93 67 -135 69 -393 317 -602 577 -381 474 -621 1111 -655
1742 -30 536 81 1057 333 1561 84 169 232 399 358 554 118 146 408 427 554
537 196 147 420 273 689 386 131 55 263 102 268 96 2 -2 23 -42 47 -88 76
-148 187 -248 331 -298 60 -21 92 -25 178 -25 119 0 207 24 307 84 108 64 210
212 249 361 l18 67 47 0 c93 0 440 -69 582 -116 96 -31 182 -31 182 1 0 17
-19 26 -110 57 -162 54 -324 88 -644 135 l-54 8 -19 79 c-52 223 -223 396
-435 441 -73 16 -174 18 -238 5z m-4083 -3714 c63 -81 62 -106 -7 -106 -12 0
-42 -7 -66 -15 -34 -12 -44 -13 -51 -3 -4 7 -8 75 -8 151 l0 139 43 -52 c23
-29 63 -80 89 -114z m27 -360 c32 -32 36 -42 35 -86 -1 -63 -23 -95 -90 -132
-35 -19 -51 -23 -56 -15 -11 20 -32 242 -25 262 6 14 15 17 53 12 36 -4 55
-13 83 -41z"/>
<path d="M10970 9490 c0 -5 5 -10 10 -10 6 0 10 5 10 10 0 6 -4 10 -10 10 -5
0 -10 -4 -10 -10z"/>
<path d="M370 9255 c0 -9 9 -53 25 -122 5 -22 4 -23 -72 -17 l-78 5 69 -36 69
-37 -54 -54 c-29 -30 -51 -54 -47 -54 3 0 31 11 62 25 31 14 61 25 65 25 5 0
12 -19 16 -42 16 -108 17 -109 36 -35 9 38 20 71 23 74 3 3 31 -11 63 -30 32
-20 59 -34 61 -32 2 2 -15 27 -37 55 -23 29 -41 55 -41 58 0 4 30 19 68 34
l67 27 -72 0 c-84 1 -82 -1 -54 93 l20 63 -22 -25 c-12 -14 -35 -41 -50 -59
-31 -38 -30 -38 -81 39 -20 30 -36 50 -36 45z"/>
<path d="M11970 9029 c0 -4 7 -26 15 -49 8 -23 15 -46 15 -51 0 -5 -24 -9 -52
-10 l-53 0 45 -20 c24 -11 46 -22 48 -24 3 -2 -10 -22 -28 -45 -36 -46 -31
-49 25 -15 l39 24 17 -52 16 -52 8 53 c4 28 9 52 10 52 2 0 24 -9 49 -20 53
-22 58 -15 16 25 -16 16 -30 32 -30 35 0 4 18 15 40 25 59 27 58 34 -6 28
l-56 -6 7 34 c3 19 9 42 11 52 9 28 -4 19 -33 -24 l-27 -42 -38 44 c-21 24
-38 41 -38 38z"/>
<path d="M8220 8979 c-61 -24 -100 -85 -100 -154 0 -60 26 -108 95 -175 66
-64 89 -103 81 -136 -7 -27 -42 -40 -84 -30 -78 20 -81 20 -92 -9 -26 -67 -2
-100 82 -111 67 -9 113 2 155 39 66 58 92 155 56 207 -9 14 -48 58 -85 99 -84
90 -106 128 -86 146 18 18 36 20 77 11 41 -10 51 2 51 62 0 37 -4 44 -26 52
-32 13 -91 12 -124 -1z"/>
<path d="M6491 8971 c-19 -12 -11 -57 56 -335 37 -155 61 -234 74 -247 19 -19
73 -25 96 -11 6 4 44 137 84 296 78 316 78 306 7 306 -48 0 -50 -5 -97 -188
-43 -166 -36 -169 -87 33 -21 83 -39 134 -50 142 -20 15 -62 17 -83 4z"/>
<path d="M7266 8928 c-3 -29 -6 -167 -6 -305 l0 -253 33 0 c76 0 77 1 78 114
0 55 4 123 7 151 l7 49 54 -141 c30 -78 57 -147 62 -154 5 -8 29 -13 61 -14
l53 0 5 45 c3 25 3 161 2 303 l-4 258 -51 -3 -52 -3 -5 -163 -5 -163 -64 156
c-36 87 -73 160 -82 166 -10 5 -33 9 -52 9 -34 0 -34 -1 -41 -52z"/>
<path d="M7707 8974 c-4 -4 -7 -119 -7 -256 0 -276 4 -298 61 -339 24 -17 50
-24 94 -27 53 -3 66 0 106 26 76 49 79 62 79 351 l0 251 -55 0 c-30 0 -55 -1
-55 -2 0 -2 -5 -110 -10 -242 -6 -149 -14 -244 -21 -252 -6 -8 -22 -14 -34
-14 -46 0 -50 18 -55 269 l-5 236 -45 3 c-25 2 -49 0 -53 -4z"/>
<path d="M6940 8960 c-13 -8 -15 -51 -15 -290 0 -239 2 -282 15 -290 17 -11
155 -13 213 -4 37 7 37 7 37 55 l0 49 -47 1 c-99 2 -112 16 -98 104 l6 43 65
7 c54 6 67 10 73 28 19 51 -6 75 -82 79 l-57 3 0 62 0 62 68 3 67 3 3 48 3 47
-118 0 c-65 0 -125 -5 -133 -10z"/>
<path d="M36 8652 c-7 -12 22 -38 31 -28 4 3 0 14 -9 22 -9 10 -18 12 -22 6z"/>
<path d="M5935 8529 c-532 -50 -1105 -351 -1496 -784 -118 -130 -269 -357
-352 -526 -173 -357 -247 -653 -255 -1020 -10 -523 121 -982 404 -1404 117
-175 323 -401 482 -526 109 -87 303 -214 404 -265 98 -49 141 -54 146 -18 4
26 -17 41 -153 113 -545 289 -984 839 -1135 1425 -54 207 -65 312 -65 636 0
271 2 304 23 402 112 521 326 919 674 1254 197 189 372 309 633 435 140 68
382 154 454 163 21 2 49 10 62 16 67 36 356 51 560 28 87 -10 110 -9 123 1 22
18 20 58 -3 71 -23 12 -373 11 -506 -1z"/>
<path d="M8505 8260 c-22 -24 -22 -23 115 -200 125 -160 247 -347 345 -528 72
-133 79 -143 104 -140 22 3 26 8 25 33 -1 29 -106 235 -203 399 -82 140 -329
456 -355 456 -7 0 -21 -9 -31 -20z"/>
<path d="M7282 8253 c-13 -2 -21 -10 -19 -16 2 -7 51 -39 109 -73 301 -174
546 -390 749 -660 92 -123 108 -139 133 -139 16 0 31 5 33 11 5 14 -96 166
-176 267 -157 197 -431 431 -656 560 -79 45 -128 59 -173 50z"/>
<path d="M6808 7628 l-28 -10 1 -221 c1 -122 4 -253 8 -292 l6 -70 52 -3 c63
-4 62 -6 66 148 l2 105 54 0 53 0 -1 -122 -2 -121 62 -4 c35 -2 63 1 65 7 3 6
3 141 2 300 l-3 290 -48 3 c-72 5 -77 -3 -77 -122 0 -66 -4 -106 -12 -114 -7
-7 -31 -12 -55 -12 l-43 0 0 103 c0 135 -4 147 -44 146 -17 0 -43 -5 -58 -11z"/>
<path d="M5788 7618 c-8 -7 -21 -40 -27 -73 -7 -33 -37 -159 -67 -280 -30
-120 -50 -223 -45 -228 4 -4 32 -7 62 -5 50 3 54 5 62 35 10 33 28 43 84 43
26 0 34 -6 50 -37 14 -29 26 -39 52 -44 46 -9 61 -2 61 30 0 44 -123 535 -138
554 -18 20 -71 23 -94 5z m66 -350 c1 -48 -1 -53 -21 -56 -19 -3 -23 1 -23 25
0 15 5 45 11 67 14 52 31 34 33 -36z"/>
<path d="M6082 7622 c-10 -7 -11 -59 -2 -268 6 -142 13 -274 16 -291 6 -31 9
-33 49 -33 l42 0 7 53 c3 28 6 75 6 102 l1 50 52 -102 52 -103 52 0 c28 0 55
5 59 11 3 6 -19 63 -50 126 l-56 115 34 39 c49 54 63 110 42 174 -20 65 -67
111 -126 124 -54 13 -160 14 -178 3z m172 -128 c24 -23 21 -99 -5 -125 -11
-11 -26 -18 -32 -16 -12 4 -22 118 -13 143 7 19 31 18 50 -2z"/>
<path d="M6432 7583 c3 -48 3 -48 46 -57 l42 -10 1 -200 c0 -111 3 -219 7
-241 l7 -40 51 -3 c46 -3 52 -1 58 20 3 13 6 123 6 246 l0 222 28 0 c46 0 64
20 60 65 l-3 40 -153 3 -153 3 3 -48z"/>
<path d="M5347 7613 c-4 -3 -7 -136 -7 -295 l0 -288 136 0 135 0 -3 48 -3 47
-72 9 -73 9 0 68 0 69 64 0 c69 0 76 6 76 72 0 29 -14 35 -105 40 l-40 3 -3
58 -3 57 69 0 c79 0 95 11 90 61 -2 26 -9 35 -28 40 -33 9 -225 11 -233 2z"/>
<path d="M2712 7503 l-24 -5 7 -151 c5 -113 4 -149 -4 -141 -6 6 -38 71 -71
145 l-59 134 -56 3 -55 3 2 -293 3 -293 58 -3 59 -3 -7 163 c-5 110 -4 160 3
153 5 -5 38 -79 73 -162 l63 -153 53 0 c47 0 55 3 63 24 8 23 -5 547 -15 574
-4 12 -45 14 -93 5z"/>
<path d="M1777 7488 c-21 -6 -56 -27 -78 -48 -38 -36 -39 -39 -39 -104 0 -37
5 -77 11 -89 6 -12 47 -56 91 -98 72 -69 79 -79 76 -110 -4 -47 -41 -60 -106
-36 -45 17 -47 17 -60 0 -39 -54 -18 -103 55 -127 44 -15 54 -15 101 -1 67 20
115 68 131 129 19 75 3 113 -88 210 -99 105 -109 121 -85 147 14 15 29 20 61
18 24 -2 47 1 52 6 15 17 20 83 8 93 -20 15 -89 20 -130 10z"/>
<path d="M2289 7493 l-36 -4 -5 -236 c-6 -250 -6 -253 -55 -253 -12 0 -27 9
-33 20 -6 11 -13 118 -17 245 l-6 226 -61 -3 -61 -3 -3 -90 c-2 -49 2 -164 8
-254 8 -131 14 -171 30 -195 51 -83 179 -97 260 -30 57 48 60 64 60 281 0 240
-6 304 -29 301 -9 -1 -32 -3 -52 -5z"/>
<path d="M10721 7318 c-16 -9 -35 -38 -55 -87 -17 -41 -35 -74 -41 -74 -5 0
-24 31 -40 69 -43 97 -39 94 -102 94 -55 0 -55 0 -50 -28 3 -15 31 -84 63
-153 57 -124 57 -124 68 -264 11 -138 11 -140 38 -149 17 -6 39 -6 60 0 l33
10 0 129 0 130 57 140 c32 77 59 151 60 165 3 22 -1 25 -32 28 -19 1 -46 -3
-59 -10z"/>
<path d="M9448 7306 c-124 -44 -185 -158 -176 -326 11 -181 91 -274 240 -275
38 0 72 5 79 12 6 6 14 32 16 57 l6 46 -70 0 c-83 0 -111 17 -138 82 -20 50
-23 149 -6 200 6 19 25 48 41 63 25 23 41 30 90 33 l60 4 0 43 c0 26 -6 50
-16 59 -19 19 -75 20 -126 2z"/>
<path d="M10080 7047 c0 -145 3 -278 6 -295 7 -36 30 -47 80 -37 l34 6 1 77
c1 123 8 125 61 18 44 -87 50 -95 82 -101 47 -9 70 -3 74 19 2 11 -19 68 -48
127 l-52 109 30 35 c35 39 47 84 40 156 -10 102 -67 142 -210 147 l-98 4 0
-265z m170 133 c42 -42 35 -103 -17 -138 -21 -13 -23 -12 -33 13 -14 36 -13
118 2 133 17 17 25 15 48 -8z"/>
<path d="M8927 7293 c-16 -4 -17 -25 -15 -296 l3 -292 55 0 55 0 5 87 c3 48 8
89 11 92 3 3 24 -36 46 -87 l42 -92 53 0 c53 0 53 0 51 29 -1 17 -25 73 -52
127 l-50 97 34 32 c72 70 67 188 -12 262 -39 38 -157 59 -226 41z m147 -126
c9 -7 20 -31 23 -54 5 -36 2 -45 -21 -68 -38 -38 -51 -28 -54 45 -4 90 8 109
52 77z"/>
<path d="M9647 7280 c-3 -11 -1 -124 3 -252 l9 -233 50 -47 c49 -48 50 -48
118 -48 71 0 90 8 146 58 l27 26 0 258 0 258 -58 0 -59 0 -6 -167 c-4 -91 -7
-197 -7 -235 l0 -68 -39 0 c-26 0 -41 5 -45 16 -3 9 -6 93 -6 188 0 95 -3 194
-6 220 l-7 46 -57 0 c-49 0 -58 -3 -63 -20z"/>
<path d="M8364 7280 c-27 -10 -35 -37 -70 -212 -15 -76 -31 -138 -35 -138 -5
0 -9 2 -9 4 0 33 -74 314 -86 328 -20 22 -67 24 -87 3 -9 -8 -18 -32 -21 -52
-13 -78 -56 -459 -56 -491 l0 -33 58 3 57 3 12 110 c6 61 12 117 12 125 3 29
18 -12 36 -95 31 -146 30 -145 81 -145 57 0 66 15 95 160 l24 115 8 -60 c5
-33 14 -94 20 -135 l12 -75 38 -3 c73 -6 72 -22 31 313 -28 226 -34 264 -43
269 -18 10 -59 13 -77 6z"/>
<path d="M8583 7283 c-10 -3 -13 -59 -12 -231 1 -125 4 -254 8 -287 l6 -60
125 0 125 0 0 50 0 50 -66 3 c-76 3 -79 7 -79 95 l0 47 48 0 c63 0 96 18 100
53 5 46 -12 57 -91 57 l-70 0 7 46 c3 26 6 52 6 59 0 8 23 14 64 17 35 3 69 9
75 12 19 12 13 74 -8 86 -20 10 -215 13 -238 3z"/>
<path d="M7216 7204 c-16 -43 -5 -68 57 -128 75 -72 153 -189 229 -341 111
-221 138 -332 145 -605 4 -163 2 -198 -17 -290 -24 -118 -113 -354 -166 -442
-82 -135 -251 -315 -387 -411 -95 -68 -249 -157 -271 -157 -8 0 -39 32 -67 70
-117 162 -285 250 -476 250 -107 0 -173 -15 -253 -56 -103 -54 -183 -125 -241
-213 -58 -89 -48 -87 -151 -35 -259 130 -509 376 -638 625 -60 117 -102 224
-132 338 -21 78 -23 107 -22 311 1 208 3 232 26 320 64 237 150 409 301 604
60 76 79 133 49 144 -28 9 -173 -170 -260 -322 -95 -165 -158 -358 -183 -560
-15 -121 -7 -342 16 -451 60 -289 207 -558 420 -770 123 -124 213 -189 384
-279 75 -40 115 -67 113 -76 -12 -51 -13 -224 -2 -271 46 -201 220 -381 420
-434 72 -19 220 -19 295 0 180 46 344 195 406 370 28 79 35 210 17 298 -11 49
-12 70 -4 76 6 5 57 32 113 61 256 127 508 378 633 628 146 291 192 624 131
941 -52 265 -185 529 -365 718 -90 95 -111 110 -120 87z"/>
<path d="M6025 6895 c-99 -25 -252 -106 -324 -172 -66 -59 -141 -164 -184
-256 -33 -69 -56 -178 -63 -290 -8 -116 10 -196 71 -325 97 -204 198 -316 363
-401 151 -77 184 -84 385 -79 167 4 174 5 245 36 239 104 401 278 471 506 30
98 30 323 0 422 -77 250 -274 459 -510 539 -75 25 -100 29 -239 31 -113 3
-171 -1 -215 -11z"/>
<path d="M10864 6223 c1 -252 -3 -531 -8 -620 -8 -147 -7 -163 7 -163 52 0 67
121 74 575 5 331 -5 601 -23 648 -3 9 -16 17 -29 17 l-22 0 1 -457z"/>
<path d="M10090 6640 c0 -6 4 -52 10 -103 33 -303 29 -640 -10 -960 -11 -87
-20 -162 -20 -168 0 -12 57 -12 65 0 10 16 33 219 46 399 13 196 6 603 -14
747 l-12 90 -32 3 c-19 2 -33 -1 -33 -8z"/>
<path d="M8465 6606 c-209 -56 -367 -207 -434 -415 -47 -144 -36 -245 41 -393
72 -138 175 -230 328 -291 36 -14 66 -32 68 -41 5 -22 -68 -202 -146 -361
-178 -361 -454 -676 -794 -905 -99 -66 -245 -148 -297 -166 -24 -8 -36 -18
-36 -31 0 -28 108 -22 179 10 129 59 385 256 562 432 277 276 441 538 575 915
40 115 43 117 130 119 105 2 238 62 331 150 119 112 177 243 178 402 0 226
-119 416 -324 513 -51 24 -253 87 -272 85 -5 -1 -45 -11 -89 -23z"/>
<path d="M10605 6190 c-3 -5 -2 -10 4 -10 5 0 13 5 16 10 3 6 2 10 -4 10 -5 0
-13 -4 -16 -10z"/>
<path d="M7985 5421 c-7 -12 12 -24 25 -16 11 7 4 25 -10 25 -5 0 -11 -4 -15
-9z"/>
<path d="M11123 5363 c-10 -3 -13 -67 -13 -268 0 -144 3 -277 6 -294 6 -30 8
-31 61 -31 40 0 55 4 60 16 8 20 -12 544 -22 567 -7 17 -61 23 -92 10z"/>
<path d="M11323 5363 l-53 -4 0 -44 c0 -50 16 -65 69 -65 l31 0 1 -207 c1
-115 4 -221 8 -238 6 -28 9 -30 57 -33 46 -3 52 -1 58 20 3 13 6 123 6 244 l0
221 40 7 c42 7 55 28 48 77 -3 23 -6 24 -108 25 -58 0 -129 -1 -157 -3z"/>
<path d="M11693 5363 c-45 -4 -52 -7 -57 -29 -4 -14 -4 -144 0 -290 l7 -264
111 0 c132 0 163 11 158 55 -5 48 -18 55 -94 55 l-69 0 3 68 3 67 70 5 70 5 3
53 3 52 -75 0 -76 0 0 60 0 60 75 0 75 0 0 55 0 55 -77 -2 c-43 -1 -101 -3
-130 -5z"/>
<path d="M11975 5110 c9 -325 9 -324 59 -328 58 -5 66 7 67 112 l0 91 50 -97
49 -98 48 0 c76 0 80 8 44 81 -17 35 -43 85 -58 111 l-26 46 35 47 c57 74 59
172 6 239 -36 46 -69 56 -180 56 l-101 0 7 -260z m173 138 c7 -7 12 -33 12
-58 0 -37 -5 -51 -26 -70 -21 -21 -27 -22 -34 -10 -11 17 -13 133 -3 143 10
11 38 8 51 -5z"/>
<path d="M10766 5353 l-28 -5 3 -289 c4 -323 2 -314 74 -304 21 3 40 7 42 8 1
2 6 43 10 92 l8 89 35 9 c85 22 140 98 140 193 -1 157 -106 233 -284 207z
m144 -133 c15 -15 20 -33 20 -75 0 -47 -3 -57 -26 -71 -15 -11 -29 -13 -34 -8
-14 14 -24 97 -16 138 8 41 26 46 56 16z"/>
<path d="M10322 5338 c-26 -26 -9 -477 21 -534 36 -69 149 -94 235 -53 81 39
82 47 80 339 l-3 255 -55 0 -55 0 -5 -231 c-5 -242 -10 -264 -51 -264 -35 0
-42 38 -48 260 -3 118 -10 221 -14 228 -10 15 -89 16 -105 0z"/>
<path d="M10128 5090 l4 -240 -29 0 c-38 0 -49 -9 -57 -47 -12 -53 6 -73 67
-73 69 0 112 26 126 77 6 22 11 141 11 281 l0 242 -62 0 -63 0 3 -240z"/>
<path d="M7820 5024 c0 -8 5 -12 10 -9 6 3 10 10 10 16 0 5 -4 9 -10 9 -5 0
-10 -7 -10 -16z"/>
<path d="M6 4962 c-3 -6 -1 -14 5 -17 15 -10 25 3 12 16 -7 7 -13 7 -17 1z"/>
<path d="M9866 4696 c-153 -388 -354 -732 -620 -1061 -49 -60 -171 -191 -270
-291 -369 -368 -733 -616 -1207 -823 -119 -52 -140 -66 -119 -81 36 -26 104
-4 311 97 112 56 257 133 323 172 586 351 1079 869 1434 1506 100 178 225 465
242 554 9 50 3 121 -10 121 -5 0 -42 -87 -84 -194z"/>
<path d="M10666 4668 c-8 -13 -42 -90 -75 -173 -269 -679 -583 -1172 -1046
-1644 -255 -261 -464 -433 -759 -627 -202 -133 -236 -160 -236 -185 0 -43 53
-18 285 136 276 183 477 348 731 600 371 369 651 763 898 1265 85 173 186 410
231 543 20 62 23 82 14 93 -16 20 -26 18 -43 -8z"/>
<path d="M160 4090 c0 -5 5 -10 10 -10 6 0 10 5 10 10 0 6 -4 10 -10 10 -5 0
-10 -4 -10 -10z"/>
<path d="M6500 3941 c-104 -32 -157 -105 -180 -245 -20 -127 25 -276 103 -340
28 -22 50 -30 91 -34 109 -9 168 22 223 116 25 42 28 58 31 168 5 153 -9 205
-77 274 -59 61 -123 81 -191 61z m98 -134 c30 -25 53 -95 53 -166 1 -124 -32
-186 -104 -198 -30 -4 -40 -1 -60 20 -31 35 -47 90 -47 168 0 85 15 136 51
172 25 24 35 28 61 23 17 -3 38 -12 46 -19z"/>
<path d="M7082 3943 c-10 -4 -11 -38 -6 -161 5 -107 4 -153 -3 -149 -6 4 -34
64 -63 134 -71 174 -70 173 -130 173 l-50 0 0 -294 c0 -284 1 -295 20 -301 10
-3 35 -3 55 1 l35 6 0 167 1 166 68 -165 c74 -180 70 -176 159 -179 l32 -1 0
299 c0 332 4 312 -68 310 -20 0 -43 -3 -50 -6z"/>
<path d="M5970 3925 c-49 -22 -78 -52 -108 -110 -22 -42 -27 -66 -30 -156 -6
-159 23 -242 111 -313 36 -28 45 -31 112 -31 65 0 78 3 117 30 151 107 152
451 1 559 -51 35 -148 46 -203 21z m127 -115 c24 -14 36 -32 47 -71 18 -60 21
-157 6 -211 -11 -37 -69 -98 -95 -98 -8 0 -30 14 -50 31 -44 39 -58 90 -53
195 5 89 26 140 69 161 32 17 39 16 76 -7z"/>
<path d="M5624 3912 c-6 -4 -18 -47 -28 -97 -45 -236 -75 -322 -77 -227 0 20
-15 100 -32 177 l-32 140 -56 3 -56 3 -17 -148 c-10 -81 -27 -208 -37 -282
-11 -73 -18 -139 -15 -147 3 -9 21 -14 50 -14 59 0 65 12 81 159 7 64 14 118
15 121 1 3 15 -53 31 -124 16 -72 35 -136 41 -143 6 -7 26 -13 44 -13 46 0 59
24 85 151 11 57 25 108 30 114 6 6 9 6 9 0 1 -73 22 -240 31 -251 14 -18 83
-18 97 -1 8 9 7 42 -3 117 -7 58 -23 177 -35 265 -29 218 -24 205 -74 205 -22
0 -46 -4 -52 -8z"/>
<path d="M717 3045 c-3 -16 -9 -49 -12 -72 -4 -24 -10 -43 -15 -43 -4 0 -33
11 -64 25 -31 14 -60 25 -63 25 -4 0 17 -24 46 -54 l54 -54 -69 -36 -69 -37
76 6 77 7 -13 -69 c-7 -37 -12 -70 -10 -71 2 -2 20 21 41 52 33 51 53 69 54
49 1 -5 21 -30 45 -58 l44 -50 -19 63 c-29 93 -31 91 53 94 l72 3 -67 24 c-38
14 -68 28 -68 31 0 4 18 31 40 60 22 29 40 55 40 57 0 4 -88 -45 -108 -60 -18
-14 -22 -7 -41 70 -16 61 -18 65 -24 38z"/>
<path d="M11700 2830 c-7 -33 -16 -62 -20 -65 -3 -2 -33 12 -64 31 -32 19 -60
33 -62 32 -1 -2 15 -27 37 -55 21 -29 39 -56 39 -61 0 -4 -30 -19 -67 -33
l-68 -24 78 -3 c42 -2 77 -4 77 -6 0 -2 -9 -29 -20 -61 -11 -32 -20 -63 -20
-69 0 -6 22 14 49 44 l48 54 38 -57 c21 -32 40 -55 42 -53 3 3 0 28 -6 56 -18
86 -21 83 62 75 l72 -6 -55 31 c-30 17 -59 35 -65 41 -6 6 9 27 40 59 27 28
46 50 42 50 -3 0 -32 -11 -63 -25 -31 -14 -60 -25 -64 -25 -5 0 -12 29 -15 65
-4 36 -11 65 -15 65 -4 0 -13 -27 -20 -60z"/>
<path d="M8270 2372 c-50 -27 -80 -75 -80 -129 0 -65 19 -99 104 -186 86 -88
97 -123 51 -153 -23 -15 -29 -15 -75 0 -28 9 -55 14 -60 11 -18 -11 -32 -73
-21 -94 15 -27 108 -56 152 -47 82 15 149 87 157 166 5 59 2 65 -108 190 -99
113 -102 131 -20 143 64 9 82 27 78 77 l-3 35 -70 3 c-53 2 -78 -2 -105 -16z"/>
<path d="M1156 2340 c-4 -25 -10 -59 -13 -76 l-5 -32 -64 29 c-35 16 -67 29
-71 29 -4 0 17 -24 46 -54 l53 -53 -64 -37 -63 -37 72 5 73 6 -6 -32 c-4 -18
-10 -51 -15 -73 -4 -22 -6 -41 -5 -43 2 -1 21 24 42 58 22 33 41 60 44 60 3 0
25 -25 49 -55 24 -30 46 -54 48 -52 1 2 -6 30 -17 62 -29 85 -30 84 53 87 l72
3 -65 24 c-36 13 -67 25 -69 27 -2 2 15 28 38 58 22 30 41 57 41 60 0 3 -27
-11 -61 -30 -33 -20 -62 -34 -64 -32 -1 1 -12 35 -22 73 l-20 70 -7 -45z"/>
<path d="M7520 2365 c-14 -16 -124 -451 -135 -532 -7 -50 -6 -52 19 -59 44
-11 76 4 92 41 14 34 16 35 69 35 49 0 55 -3 67 -27 10 -22 23 -30 61 -37 28
-5 52 -5 57 0 14 15 -132 573 -153 586 -20 13 -64 9 -77 -7z m67 -345 c6 -49
5 -50 -22 -50 l-28 0 7 56 c4 31 9 61 13 67 9 15 23 -18 30 -73z"/>
<path d="M7818 2374 c-5 -4 -8 -139 -8 -301 l0 -293 41 0 c22 0 50 5 61 11 19
10 20 17 14 108 l-6 96 52 -101 51 -102 43 -6 c92 -12 94 9 19 150 l-56 103
25 16 c33 22 66 92 66 140 0 55 -35 122 -81 152 -32 21 -54 26 -126 30 -49 3
-91 2 -95 -3z m161 -130 c39 -49 16 -139 -32 -132 -19 3 -22 10 -25 57 -6 100
16 127 57 75z"/>
<path d="M6916 2357 c-14 -10 -22 -45 -37 -153 -26 -201 -47 -407 -41 -421 7
-21 89 -17 100 5 5 9 15 68 22 130 7 61 16 112 20 112 4 0 17 -48 30 -107 28
-133 39 -153 84 -153 18 0 38 6 45 13 10 13 26 74 51 201 15 72 25 60 34 -39
4 -38 9 -91 12 -117 l6 -48 54 0 c53 0 54 1 54 29 0 30 -56 465 -66 514 -11
53 -95 62 -114 13 -5 -14 -21 -84 -35 -158 -14 -73 -30 -142 -34 -153 -10 -23
-10 -23 -61 190 -19 78 -38 135 -48 143 -21 16 -53 15 -76 -1z"/>
<path d="M11261 2153 c-19 -87 -21 -89 -67 -61 -22 14 -50 31 -64 38 -28 15
-31 21 34 -70 16 -22 27 -42 25 -44 -2 -1 -33 -15 -69 -29 l-65 -26 73 -1 c83
0 81 2 52 -92 l-19 -63 44 50 c24 28 44 53 45 58 1 19 21 2 54 -48 40 -61 52
-69 41 -28 -3 14 -10 46 -14 70 l-9 44 77 -6 76 -6 -69 36 -69 37 54 54 c29
30 50 54 46 54 -3 0 -32 -11 -63 -25 -31 -14 -60 -25 -65 -25 -4 0 -11 21 -14
48 -13 95 -20 102 -34 35z"/>
<path d="M1718 1784 c-5 -4 -8 -22 -8 -41 0 -38 1 -38 -47 -18 -50 21 -51 19
-15 -18 l32 -33 -37 -19 -38 -20 43 -3 42 -3 -6 -42 -6 -42 22 33 c12 17 26
32 30 32 5 0 21 -15 35 -32 18 -22 25 -26 20 -13 -3 11 -9 32 -12 48 -5 26 -4
27 38 28 l44 1 -37 16 c-37 17 -48 35 -28 47 5 3 15 15 21 26 10 20 10 20 -29
0 l-39 -20 -9 40 c-5 23 -12 37 -16 33z"/>
<path d="M10828 1534 c-5 -4 -8 -14 -8 -23 -1 -39 -16 -45 -54 -23 -43 25 -44
22 -10 -23 l25 -33 -35 -13 c-47 -17 -46 -29 4 -29 l39 0 -14 -42 -15 -43 31
34 c35 38 28 40 74 -24 14 -19 15 -18 9 10 -3 17 -8 39 -11 49 -5 17 -1 18 41
13 51 -7 54 3 6 23 -34 14 -37 22 -14 40 8 8 20 22 25 32 10 18 8 18 -30 -2
l-41 -20 -4 22 c-3 13 -7 31 -8 41 -2 11 -6 15 -10 11z"/>
<path d="M2197 1221 c-4 -18 -7 -44 -7 -58 0 -33 -21 -38 -69 -14 -56 29 -58
27 -17 -23 20 -24 36 -47 36 -50 0 -3 -22 -17 -50 -31 -27 -14 -50 -27 -50
-29 0 -2 28 -2 62 1 l61 6 -7 -44 c-4 -24 -9 -55 -12 -69 -4 -17 7 -6 34 33
l39 58 46 -53 46 -53 -19 59 c-11 33 -20 63 -20 68 0 4 30 8 68 9 l67 1 -35
14 c-19 8 -48 20 -63 27 l-28 12 35 47 c20 26 36 49 36 52 0 4 -25 -8 -55 -25
-41 -23 -56 -27 -59 -17 -3 7 -11 36 -18 63 l-14 50 -7 -34z"/>
<path d="M10361 1195 c-7 -30 -16 -55 -21 -55 -5 0 -32 14 -60 30 -54 32 -55
28 -7 -33 17 -22 26 -42 21 -47 -5 -5 -31 -18 -59 -29 l-50 -20 36 0 c20 -1
50 -4 67 -7 l30 -6 -19 -56 c-10 -30 -18 -57 -16 -58 2 -2 20 17 41 41 20 25
40 45 44 45 4 0 20 -20 35 -45 16 -25 31 -45 34 -45 5 0 -2 48 -14 98 -5 22
-4 23 63 17 l69 -6 -58 31 c-65 34 -65 31 -3 98 36 39 31 40 -34 7 -27 -14
-52 -25 -54 -25 -3 0 -8 27 -12 60 -4 33 -10 60 -14 60 -4 0 -12 -25 -19 -55z"/>
<path d="M2836 853 c-5 -29 -10 -53 -12 -53 -3 0 -22 9 -44 20 -56 29 -59 25
-16 -19 l38 -39 -48 -26 -49 -26 53 6 c58 7 58 6 43 -58 -5 -21 -7 -38 -5 -38
2 0 16 19 31 41 l27 41 34 -38 c22 -26 32 -32 28 -19 -18 70 -18 72 6 79 13 3
34 6 48 7 20 0 16 4 -17 16 -24 8 -43 19 -43 25 0 5 12 26 28 46 l27 36 -46
-27 -47 -26 -14 52 -15 52 -7 -52z"/>
<path d="M9937 717 c-4 -10 -7 -26 -7 -35 0 -9 -4 -24 -10 -32 -7 -12 -15 -11
-51 9 -43 24 -43 21 -5 -31 22 -32 24 -30 -29 -51 l-40 -16 35 -1 c54 -1 65
-12 51 -50 -17 -51 -14 -53 22 -13 l34 36 22 -37 c12 -20 25 -36 27 -36 3 0 2
21 -2 46 l-7 47 47 -5 c25 -3 46 -4 46 -2 0 2 -18 13 -41 25 -41 20 -41 20
-22 42 50 57 50 59 0 38 l-46 -20 -8 52 c-6 37 -11 47 -16 34z"/>
<path d="M9310 590 c-7 -33 -16 -62 -19 -64 -3 -2 -32 11 -64 30 -32 19 -60
34 -63 34 -3 0 15 -27 40 -59 l46 -59 -73 -29 -72 -28 78 -3 c42 -2 77 -4 77
-6 0 -2 -6 -21 -13 -42 -8 -22 -17 -52 -21 -69 -6 -28 -3 -26 42 24 l48 55 43
-60 c42 -57 43 -58 37 -24 -4 19 -9 53 -13 74 l-6 39 71 -7 c40 -4 72 -5 72
-3 0 3 -24 17 -52 32 -29 15 -57 31 -63 36 -5 6 10 28 40 59 27 28 46 50 42
50 -3 0 -32 -11 -63 -25 -31 -14 -60 -25 -64 -25 -4 0 -11 29 -15 65 -3 36
-10 65 -14 65 -5 0 -14 -27 -21 -60z"/>
<path d="M3362 524 c-6 -37 -13 -69 -16 -72 -3 -3 -32 7 -63 21 -51 23 -84 28
-58 9 6 -4 27 -26 49 -49 l38 -41 -48 -26 c-86 -44 -86 -48 -6 -41 39 3 72 3
72 -2 -1 -4 -7 -37 -15 -73 -7 -36 -12 -66 -11 -68 2 -1 21 24 42 58 22 33 41
60 44 60 3 0 25 -25 50 -55 24 -29 46 -53 47 -51 2 1 -6 29 -17 61 -29 85 -30
84 53 87 l72 3 -65 24 c-36 13 -67 26 -69 27 -2 2 15 29 39 60 23 30 40 57 38
59 -2 2 -28 -12 -58 -30 -30 -19 -58 -35 -61 -35 -4 0 -15 32 -24 70 -9 39
-18 70 -20 70 -1 0 -7 -30 -13 -66z"/>
</g>
</svg>
